<svg xmlns="http://www.w3.org/2000/svg" width="1024" height="1024" viewBox="0 0 1024 1024">
<g>
<path d="M 434.83 685.90 C432.91,688.97 428.44,688.18 425.27,684.21 C424.16,682.82 423.83,682.85 422.06,684.45 C420.28,686.05 419.94,686.08 418.54,684.69 C417.69,683.84 417.00,682.66 417.00,682.07 C417.00,681.48 416.49,681.00 415.86,681.00 C415.10,681.00 414.92,679.58 415.32,676.66 C416.01,671.64 414.60,669.26 412.29,671.56 C411.50,672.35 410.29,673.00 409.59,673.00 C408.11,673.00 405.71,668.30 406.84,667.60 C407.26,667.34 407.71,665.32 407.84,663.12 C408.02,660.09 407.62,658.87 406.23,658.12 C403.79,656.82 402.50,657.89 402.50,661.25 C402.50,665.54 400.58,663.99 400.34,659.50 C400.09,654.96 400.06,652.39 400.21,649.50 C400.32,647.49 399.54,644.78 398.06,642.00 C397.52,641.00 396.09,640.60 393.74,640.82 C390.81,641.08 389.88,640.64 388.14,638.20 C386.99,636.58 385.86,633.74 385.62,631.88 C385.38,630.02 384.50,627.20 383.67,625.62 C382.51,623.42 382.41,622.31 383.26,620.95 C384.52,618.94 382.65,611.79 380.22,609.37 C379.03,608.17 375.24,607.45 372.64,607.92 C371.52,608.12 369.04,604.74 369.62,603.80 C369.86,603.41 370.65,603.31 371.37,603.59 C373.43,604.38 374.89,601.82 373.89,599.19 C372.88,596.50 370.95,597.09 371.67,599.86 C372.31,602.30 369.14,603.57 367.22,601.65 C366.17,600.60 366.07,599.73 366.83,598.31 C368.27,595.62 369.02,588.13 367.91,587.45 C367.41,587.14 367.00,585.12 367.00,582.96 C367.00,577.94 365.19,565.94 363.46,559.50 C362.39,555.53 362.10,539.00 362.06,479.50 C362.02,438.25 361.72,402.62 361.39,400.31 C360.97,397.38 361.30,395.13 362.48,392.81 C363.40,390.99 365.00,384.76 366.02,378.97 C367.04,373.18 368.36,367.19 368.94,365.67 C369.52,364.14 369.61,363.12 369.14,363.42 C368.66,363.71 368.62,362.06 369.04,359.76 C369.93,354.92 372.94,352.00 377.04,352.00 C380.07,352.00 384.26,347.84 383.42,345.65 C383.16,344.98 383.76,343.55 384.75,342.46 C385.75,341.38 386.41,339.76 386.22,338.85 C385.87,337.08 390.14,336.14 401.13,335.56 C412.15,334.98 419.37,331.00 417.63,326.47 C416.72,324.10 419.19,323.76 423.55,325.66 C425.72,326.60 427.80,327.41 428.17,327.44 C428.53,327.47 429.17,327.83 429.57,328.24 C429.98,328.65 430.91,328.49 431.63,327.89 C432.53,327.15 448.52,326.67 481.72,326.40 C508.55,326.18 531.62,325.92 533.00,325.82 C534.38,325.72 536.80,326.01 538.40,326.46 C540.40,327.03 541.09,326.96 540.63,326.21 C540.27,325.62 540.49,324.81 541.14,324.41 C541.87,323.96 542.04,324.12 541.60,324.85 C541.20,325.48 541.39,326.00 542.00,326.00 C542.61,326.00 542.84,326.45 542.50,327.00 C542.16,327.55 542.92,328.06 544.19,328.13 C549.74,328.43 551.06,328.84 552.73,330.78 C554.08,332.35 556.51,333.08 563.00,333.87 C567.67,334.43 573.08,335.18 575.00,335.52 C576.92,335.87 579.49,336.30 580.69,336.48 C581.90,336.66 583.43,337.15 584.10,337.56 C584.84,338.02 585.05,337.89 584.64,337.23 C582.75,334.17 594.33,334.79 597.70,337.93 C598.76,338.92 601.26,340.50 603.25,341.45 C605.61,342.57 606.68,343.66 606.33,344.58 C606.03,345.36 606.36,346.00 607.06,346.00 C607.76,346.00 608.05,346.28 607.71,346.62 C606.05,348.28 615.23,353.26 621.18,353.92 C621.56,353.97 622.18,354.99 622.56,356.20 C623.65,359.63 625.23,360.67 628.75,360.26 C631.91,359.90 632.71,360.88 632.08,364.36 C631.79,365.97 634.25,368.00 636.50,368.00 C639.80,368.00 641.34,370.39 640.59,374.35 C639.69,379.17 640.65,380.83 645.73,383.21 C649.96,385.20 650.18,385.50 649.67,388.66 C648.96,393.03 650.58,392.94 652.43,388.51 C653.50,385.95 654.32,385.19 655.53,385.65 C656.64,386.08 656.96,386.95 656.54,388.39 C655.93,390.46 655.67,391.57 654.41,397.37 C654.03,399.14 654.24,400.53 654.97,400.98 C655.67,401.41 656.26,404.59 656.39,408.61 C656.51,412.40 657.22,418.92 657.96,423.09 C659.18,429.98 659.57,430.78 662.15,431.75 C664.13,432.50 665.02,433.54 665.05,435.16 C665.16,440.53 665.18,450.08 665.09,458.74 C665.00,467.75 664.92,468.05 661.93,470.72 C659.64,472.76 658.97,474.09 659.33,475.92 C659.58,477.27 659.18,479.33 658.42,480.48 C657.65,481.66 656.81,486.50 656.51,491.49 C656.21,496.39 655.50,500.69 654.92,501.05 C654.35,501.40 654.02,503.40 654.19,505.49 C654.38,507.87 654.03,509.45 653.25,509.73 C652.41,510.02 652.22,509.59 652.67,508.42 C653.13,507.23 652.97,506.90 652.17,507.39 C651.51,507.81 650.99,507.55 650.98,506.81 C650.97,505.86 650.71,505.91 650.03,506.99 C649.51,507.81 649.45,508.85 649.89,509.29 C651.58,510.98 649.65,514.97 645.90,517.57 C643.12,519.50 641.98,521.02 641.92,522.89 C641.83,526.10 641.51,527.41 639.59,532.50 C638.77,534.70 638.07,537.95 638.04,539.73 C638.01,542.32 637.51,543.09 635.53,543.58 C632.78,544.27 630.50,542.54 630.50,539.75 C630.50,538.79 630.16,538.00 629.75,538.00 L 627.56 538.00 C626.62,538.00 626.01,539.30 625.81,541.75 C625.53,545.16 625.23,545.51 622.50,545.58 C620.85,545.63 618.96,545.74 618.31,545.83 C616.96,546.02 617.42,549.82 618.98,551.38 C620.49,552.89 620.29,559.26 618.75,558.75 C618.06,558.53 617.04,557.48 616.47,556.42 C615.91,555.36 614.78,554.33 613.97,554.13 C610.32,553.22 609.50,553.56 609.49,556.00 C609.48,557.38 609.11,559.06 608.68,559.75 C607.71,561.27 603.37,561.41 602.47,559.95 C602.03,559.25 601.31,559.33 600.26,560.20 C599.40,560.92 598.65,561.32 598.60,561.10 C598.27,559.77 594.00,562.46 594.00,564.00 C594.00,565.02 593.38,566.47 592.63,567.23 C591.88,567.98 590.96,569.55 590.59,570.71 C590.00,572.56 589.51,572.72 586.78,571.94 C585.05,571.44 583.33,570.53 582.95,569.91 C582.51,569.20 581.06,569.05 579.06,569.49 C575.95,570.17 575.91,570.24 577.64,572.16 C579.17,573.85 579.22,574.25 577.96,575.05 C576.10,576.23 572.68,576.26 571.45,575.11 C570.90,574.59 566.75,574.60 561.50,575.13 C556.55,575.63 548.22,576.46 543.00,576.97 C537.78,577.48 522.25,577.93 508.50,577.97 C494.75,578.00 482.95,578.38 482.28,578.80 C481.61,579.23 480.60,583.69 480.03,588.71 C478.77,599.85 478.48,600.66 475.46,601.42 C473.42,601.93 473.14,602.46 473.64,604.95 C474.18,607.65 473.96,607.92 470.73,608.52 C465.88,609.43 463.90,614.45 464.69,623.87 C465.26,630.62 463.96,635.71 461.97,634.48 C460.72,633.71 454.94,640.19 455.49,641.75 C455.74,642.44 455.41,643.00 454.77,643.00 C453.90,643.00 453.89,643.29 454.72,644.12 C455.53,644.93 455.55,645.90 454.78,647.58 C453.92,649.47 453.36,649.73 451.84,648.92 C449.44,647.63 448.63,649.48 449.42,654.43 C449.74,656.41 449.57,658.82 449.06,659.77 C448.54,660.72 447.86,662.76 447.53,664.29 C447.19,665.89 446.02,667.43 444.80,667.88 C443.62,668.32 442.53,669.53 442.38,670.59 C441.38,677.48 438.82,682.62 436.96,681.47 C435.54,680.60 433.12,682.14 433.67,683.58 C433.97,684.35 434.65,684.72 435.18,684.39 C435.71,684.06 435.56,684.74 434.83,685.90 ZM 422.61 673.75 C425.60,676.44 430.01,676.66 432.83,674.25 C433.97,673.29 437.88,665.97 441.54,658.00 C445.20,650.03 450.00,639.67 452.20,635.00 C455.75,627.46 461.74,614.30 466.97,602.50 C476.56,580.90 478.60,576.75 479.95,576.04 C480.80,575.59 496.35,574.99 514.50,574.71 C543.07,574.27 548.84,573.92 557.50,572.08 C563.00,570.91 568.40,569.54 569.50,569.04 C570.60,568.54 575.55,566.52 580.50,564.55 C589.10,561.13 602.24,554.09 608.38,549.60 C615.16,544.65 631.59,527.92 636.47,521.00 C651.69,499.41 658.82,474.16 657.66,446.00 C657.07,431.85 654.82,417.35 651.82,408.50 C647.23,394.92 636.30,377.37 626.84,368.38 C611.48,353.80 595.56,344.77 576.88,340.06 C558.08,335.32 548.54,334.84 479.50,335.18 L 416.50 335.50 L 408.51 338.32 C404.11,339.88 397.98,342.69 394.88,344.57 C387.64,348.97 377.26,360.01 373.78,367.03 C372.92,368.76 372.18,370.19 371.56,371.66 C368.00,380.05 368.00,389.96 368.02,468.17 L 368.02 475.46 L 368.02 482.14 C368.03,558.96 368.03,570.41 371.39,580.79 C372.07,582.90 372.89,584.96 373.88,587.53 C379.75,602.76 417.05,668.76 422.61,673.75 ZM 528.20 504.87 C514.98,507.69 497.71,505.01 486.91,498.44 C463.69,484.34 453.96,455.80 463.85,430.79 C469.54,416.38 486.25,402.44 501.80,399.13 C514.39,396.45 529.70,398.27 541.00,403.79 C548.21,407.31 561.20,420.48 565.10,428.21 C574.71,447.23 572.48,468.83 559.18,485.66 C552.26,494.41 539.18,502.52 528.20,504.87 ZM 510.34 501.55 C509.86,502.81 510.88,502.95 517.14,502.43 C526.22,501.69 527.10,501.43 526.43,499.68 C525.72,497.82 530.72,495.80 536.65,495.55 C541.03,495.37 544.69,492.93 543.50,491.00 C543.26,490.61 544.17,489.25 545.53,487.97 C547.06,486.54 548.03,484.48 548.08,482.58 C548.12,480.88 548.37,480.02 548.63,480.64 C548.97,481.48 549.97,481.51 552.30,480.76 C556.70,479.34 558.51,478.84 559.16,477.68 C559.61,476.88 559.50,475.76 559.30,473.80 C559.28,473.58 559.26,473.34 559.23,473.09 C558.93,469.92 559.20,467.47 559.95,466.56 C560.61,465.77 561.06,464.30 560.96,463.31 C560.39,457.89 561.04,455.00 562.83,455.00 C564.30,455.00 564.58,455.63 564.27,458.25 C563.90,461.37 563.95,461.42 565.48,459.51 C567.51,456.98 567.10,453.40 564.83,453.78 C561.99,454.25 561.51,450.16 564.00,446.78 C565.77,444.40 566.00,443.36 565.17,441.65 C564.59,440.43 564.11,440.11 564.07,440.90 C564.02,441.99 563.54,441.90 562.00,440.50 C560.59,439.23 560.00,437.42 560.00,434.40 C560.00,432.05 559.54,429.84 558.98,429.49 C558.42,429.14 558.21,428.46 558.52,427.97 C558.82,427.48 557.81,427.74 556.28,428.54 C552.46,430.53 551.67,430.40 548.54,427.27 C546.23,424.96 545.91,423.98 546.42,420.80 C546.93,417.59 546.67,416.83 544.60,415.48 C543.28,414.61 540.96,414.03 539.45,414.20 C536.19,414.56 535.00,412.45 537.94,411.52 C540.98,410.56 540.44,409.00 537.08,409.00 C535.48,409.00 533.43,408.72 532.54,408.38 C531.50,407.98 531.02,408.22 531.21,409.07 C531.37,409.79 530.80,410.54 529.95,410.73 C528.84,410.97 528.13,409.86 527.45,406.82 C526.72,403.53 525.93,402.41 524.00,401.88 C519.90,400.76 507.22,400.92 502.33,402.15 C498.59,403.09 497.53,403.89 496.39,406.61 C495.63,408.44 493.99,410.47 492.75,411.13 C491.37,411.87 490.98,412.49 491.75,412.75 C494.88,413.79 492.63,415.54 487.75,415.85 C479.69,416.37 478.56,416.54 477.23,417.36 C475.34,418.53 475.77,420.00 478.00,420.00 C480.29,420.00 480.29,420.01 478.93,425.92 C477.67,431.42 475.63,433.07 470.50,432.77 C466.66,432.55 466.45,432.70 465.21,436.49 C463.19,442.61 463.29,458.27 465.36,461.43 C466.29,462.84 467.87,464.00 468.87,464.00 C469.87,464.00 471.50,464.90 472.50,466.00 C473.50,467.10 473.91,468.00 473.43,468.00 C472.95,468.00 474.00,469.32 475.78,470.94 C478.34,473.29 479.00,474.68 479.00,477.74 C479.00,479.86 479.41,482.03 479.92,482.55 C480.42,483.07 480.98,484.62 481.17,486.00 C481.40,487.77 482.12,488.51 483.64,488.53 C486.37,488.57 489.03,490.76 488.38,492.44 C487.57,494.56 490.98,497.22 493.64,496.55 C495.15,496.17 496.00,496.40 496.00,497.18 C496.00,498.13 496.27,498.13 497.20,497.20 C499.24,495.16 501.98,495.86 505.02,499.18 C507.48,501.87 508.02,502.10 508.57,500.69 C508.92,499.77 509.59,499.25 510.06,499.54 C510.53,499.83 510.66,500.73 510.34,501.55 ZM 358.14 557.75 C357.76,559.09 354.32,559.49 353.81,558.25 C353.64,557.84 353.64,522.51 353.81,479.75 C354.12,404.08 354.18,402.00 356.04,402.00 C357.89,402.00 357.95,404.06 358.22,479.25 C358.37,521.74 358.34,557.06 358.14,557.75 ZM 511.42 330.08 C511.65,330.31 515.65,330.53 520.31,330.56 C526.92,330.61 528.68,330.34 528.29,329.31 C527.93,328.37 525.40,328.00 519.39,328.00 C512.04,328.00 509.89,328.56 511.42,330.08 ZM 464.57 329.89 C463.92,330.94 468.10,330.69 469.90,329.57 C470.78,329.02 471.08,329.06 470.70,329.68 C470.36,330.22 470.72,330.67 471.50,330.67 C472.28,330.67 472.70,330.33 472.45,329.92 C472.20,329.51 472.55,328.94 473.24,328.66 C473.93,328.39 468.88,328.21 462.00,328.28 C453.61,328.36 452.06,328.51 457.28,328.74 C461.56,328.93 464.84,329.45 464.57,329.89 ZM 497.51 330.18 C497.98,330.64 502.81,330.50 504.00,329.98 C504.27,329.86 504.87,329.83 505.32,329.91 C505.78,329.99 505.86,329.59 505.52,329.02 C504.76,327.80 497.00,327.63 497.00,328.83 C497.00,329.29 497.23,329.90 497.51,330.18 ZM 480.33 605.43 C480.93,606.99 478.72,609.39 477.66,608.32 C477.30,607.96 477.00,606.84 477.00,605.83 C477.00,603.67 479.54,603.36 480.33,605.43 ZM 446.64 675.50 C446.95,676.33 446.97,677.00 446.67,677.00 C445.76,677.00 444.83,673.08 445.49,672.01 C446.43,670.49 448.00,670.80 448.00,672.50 C448.00,673.33 447.56,674.00 447.03,674.00 C446.50,674.00 446.32,674.67 446.64,675.50 ZM 432.00 322.00 C432.00,323.27 427.97,323.27 426.00,322.00 C424.88,321.28 425.46,321.03 428.25,321.02 C430.31,321.01 432.00,321.45 432.00,322.00 ZM 556.00 324.88 C556.00,325.37 555.10,326.00 554.00,326.29 C552.70,326.63 552.00,326.32 552.00,325.41 C552.00,324.63 552.90,324.00 554.00,324.00 C555.10,324.00 556.00,324.40 556.00,324.88 ZM 669.97 464.75 C670.00,468.31 669.55,468.87 668.61,466.41 C668.27,465.54 668.43,464.08 668.97,463.16 C669.74,461.84 669.95,462.16 669.97,464.75 ZM 633.00 532.12 C633.00,533.47 634.61,533.17 635.93,531.58 C636.90,530.41 636.75,530.25 635.06,530.70 C633.93,530.99 633.00,531.63 633.00,532.12 ZM 467.00 469.00 C467.00,469.55 467.45,470.00 468.00,470.00 C468.55,470.00 469.00,469.55 469.00,469.00 C469.00,468.45 468.55,468.00 468.00,468.00 C467.45,468.00 467.00,468.45 467.00,469.00 Z" fill="rgb(252,252,251)"/>
<path d="M 0.00 0.00 L 1024.00 0.00 L 1024.00 1024.00 L 0.00 1024.00 ZM 434.83 685.90 C435.56,684.74 435.71,684.06 435.18,684.39 C434.65,684.72 433.97,684.35 433.67,683.58 C433.12,682.14 435.54,680.60 436.96,681.47 C438.82,682.62 441.38,677.48 442.38,670.59 C442.53,669.53 443.62,668.32 444.80,667.88 C446.02,667.43 447.19,665.89 447.53,664.29 C447.86,662.76 448.54,660.72 449.06,659.77 C449.57,658.82 449.74,656.41 449.42,654.43 C448.63,649.48 449.44,647.63 451.84,648.92 C453.36,649.73 453.92,649.47 454.78,647.58 C455.55,645.90 455.53,644.93 454.72,644.12 C453.89,643.29 453.90,643.00 454.77,643.00 C455.41,643.00 455.74,642.44 455.49,641.75 C454.94,640.19 460.72,633.71 461.97,634.48 C463.96,635.71 465.26,630.62 464.69,623.87 C463.90,614.45 465.88,609.43 470.73,608.52 C473.96,607.92 474.18,607.65 473.64,604.95 C473.14,602.46 473.42,601.93 475.46,601.42 C478.48,600.66 478.77,599.85 480.03,588.71 C480.60,583.69 481.61,579.23 482.28,578.80 C482.95,578.38 494.75,578.00 508.50,577.97 C522.25,577.93 537.78,577.48 543.00,576.97 C548.22,576.46 556.55,575.63 561.50,575.13 C566.75,574.60 570.90,574.59 571.45,575.11 C572.68,576.26 576.10,576.23 577.96,575.05 C579.22,574.25 579.17,573.85 577.64,572.16 C575.91,570.24 575.95,570.17 579.06,569.49 C581.06,569.05 582.51,569.20 582.95,569.91 C583.33,570.53 585.05,571.44 586.78,571.94 C589.51,572.72 590.00,572.56 590.59,570.71 C590.96,569.55 591.88,567.98 592.63,567.23 C593.38,566.47 594.00,565.02 594.00,564.00 C594.00,562.46 598.27,559.77 598.60,561.10 C598.65,561.32 599.40,560.92 600.26,560.20 C601.31,559.33 602.03,559.25 602.47,559.95 C603.37,561.41 607.71,561.27 608.68,559.75 C609.11,559.06 609.48,557.38 609.49,556.00 C609.50,553.56 610.32,553.22 613.97,554.13 C614.78,554.33 615.91,555.36 616.47,556.42 C617.04,557.48 618.06,558.53 618.75,558.75 C620.29,559.26 620.49,552.89 618.98,551.38 C617.42,549.82 616.96,546.02 618.31,545.83 C618.96,545.74 620.85,545.63 622.50,545.58 C625.23,545.51 625.53,545.16 625.81,541.75 C626.01,539.30 626.62,538.00 627.56,538.00 L 629.75 538.00 C630.16,538.00 630.50,538.79 630.50,539.75 C630.50,542.54 632.78,544.27 635.53,543.58 C637.51,543.09 638.01,542.32 638.04,539.73 C638.07,537.95 638.77,534.70 639.59,532.50 C641.51,527.41 641.83,526.10 641.92,522.89 C641.98,521.02 643.12,519.50 645.90,517.57 C649.65,514.97 651.58,510.98 649.89,509.29 C649.45,508.85 649.51,507.81 650.03,506.99 C650.71,505.91 650.97,505.86 650.98,506.81 C650.99,507.55 651.51,507.81 652.17,507.39 C652.97,506.90 653.13,507.23 652.67,508.42 C652.22,509.59 652.41,510.02 653.25,509.73 C654.03,509.45 654.38,507.87 654.19,505.49 C654.02,503.40 654.35,501.40 654.92,501.05 C655.50,500.69 656.21,496.39 656.51,491.49 C656.81,486.50 657.65,481.66 658.42,480.48 C659.18,479.33 659.58,477.27 659.33,475.92 C658.97,474.09 659.64,472.76 661.93,470.72 C664.92,468.05 665.00,467.75 665.09,458.74 C665.18,450.08 665.16,440.53 665.05,435.16 C665.02,433.54 664.13,432.50 662.15,431.75 C659.57,430.78 659.18,429.98 657.96,423.09 C657.22,418.92 656.51,412.40 656.39,408.61 C656.26,404.59 655.67,401.41 654.97,400.98 C654.24,400.53 654.03,399.14 654.41,397.37 C655.67,391.57 655.93,390.46 656.54,388.39 C656.96,386.95 656.64,386.08 655.53,385.65 C654.32,385.19 653.50,385.95 652.43,388.51 C650.58,392.94 648.96,393.03 649.67,388.66 C650.18,385.50 649.96,385.20 645.73,383.21 C640.65,380.83 639.69,379.17 640.59,374.35 C641.34,370.39 639.80,368.00 636.50,368.00 C634.25,368.00 631.79,365.97 632.08,364.36 C632.71,360.88 631.91,359.90 628.75,360.26 C625.23,360.67 623.65,359.63 622.56,356.20 C622.18,354.99 621.56,353.97 621.18,353.92 C615.23,353.26 606.05,348.28 607.71,346.62 C608.05,346.28 607.76,346.00 607.06,346.00 C606.36,346.00 606.03,345.36 606.33,344.58 C606.68,343.66 605.61,342.57 603.25,341.45 C601.26,340.50 598.76,338.92 597.70,337.93 C594.33,334.79 582.75,334.17 584.64,337.23 C585.05,337.89 584.84,338.02 584.10,337.56 C583.43,337.15 581.90,336.66 580.69,336.48 C579.49,336.30 576.92,335.87 575.00,335.52 C573.08,335.18 567.67,334.43 563.00,333.87 C556.51,333.08 554.08,332.35 552.73,330.78 C551.06,328.84 549.74,328.43 544.19,328.13 C542.92,328.06 542.16,327.55 542.50,327.00 C542.84,326.45 542.61,326.00 542.00,326.00 C541.39,326.00 541.20,325.48 541.60,324.85 C542.04,324.12 541.87,323.96 541.14,324.41 C540.49,324.81 540.27,325.62 540.63,326.21 C541.09,326.96 540.40,327.03 538.40,326.46 C536.80,326.01 534.38,325.72 533.00,325.82 C531.62,325.92 508.55,326.18 481.72,326.40 C448.52,326.67 432.53,327.15 431.63,327.89 C430.91,328.49 429.98,328.65 429.57,328.24 C429.17,327.83 428.53,327.47 428.17,327.44 C427.80,327.41 425.72,326.60 423.55,325.66 C419.19,323.76 416.72,324.10 417.63,326.47 C419.37,331.00 412.15,334.98 401.13,335.56 C390.14,336.14 385.87,337.08 386.22,338.85 C386.41,339.76 385.75,341.38 384.75,342.46 C383.76,343.55 383.16,344.98 383.42,345.65 C384.26,347.84 380.07,352.00 377.04,352.00 C372.94,352.00 369.93,354.92 369.04,359.76 C368.62,362.06 368.66,363.71 369.14,363.42 C369.61,363.12 369.52,364.14 368.94,365.67 C368.36,367.19 367.04,373.18 366.02,378.97 C365.00,384.76 363.40,390.99 362.48,392.81 C361.30,395.13 360.97,397.38 361.39,400.31 C361.72,402.62 362.02,438.25 362.06,479.50 C362.10,539.00 362.39,555.53 363.46,559.50 C365.19,565.94 367.00,577.94 367.00,582.96 C367.00,585.12 367.41,587.14 367.91,587.45 C369.02,588.13 368.27,595.62 366.83,598.31 C366.07,599.73 366.17,600.60 367.22,601.65 C369.14,603.57 372.31,602.30 371.67,599.86 C370.95,597.09 372.88,596.50 373.89,599.19 C374.89,601.82 373.43,604.38 371.37,603.59 C370.65,603.31 369.86,603.41 369.62,603.80 C369.04,604.74 371.52,608.12 372.64,607.92 C375.24,607.45 379.03,608.17 380.22,609.37 C382.65,611.79 384.52,618.94 383.26,620.95 C382.41,622.31 382.51,623.42 383.67,625.62 C384.50,627.20 385.38,630.02 385.62,631.88 C385.86,633.74 386.99,636.58 388.14,638.20 C389.88,640.64 390.81,641.08 393.74,640.82 C396.09,640.60 397.52,641.00 398.06,642.00 C399.54,644.78 400.32,647.49 400.21,649.50 C400.06,652.39 400.09,654.96 400.34,659.50 C400.58,663.99 402.50,665.54 402.50,661.25 C402.50,657.89 403.79,656.82 406.23,658.12 C407.62,658.87 408.02,660.09 407.84,663.12 C407.71,665.32 407.26,667.34 406.84,667.60 C405.71,668.30 408.11,673.00 409.59,673.00 C410.29,673.00 411.50,672.35 412.29,671.56 C414.60,669.26 416.01,671.64 415.32,676.66 C414.92,679.58 415.10,681.00 415.86,681.00 C416.49,681.00 417.00,681.48 417.00,682.07 C417.00,682.66 417.69,683.84 418.54,684.69 C419.94,686.08 420.28,686.05 422.06,684.45 C423.83,682.85 424.16,682.82 425.27,684.21 C428.44,688.18 432.91,688.97 434.83,685.90 ZM 510.34 501.55 C510.66,500.73 510.53,499.83 510.06,499.54 C509.59,499.25 508.92,499.77 508.57,500.69 C508.02,502.10 507.48,501.87 505.02,499.18 C501.98,495.86 499.24,495.16 497.20,497.20 C496.27,498.13 496.00,498.13 496.00,497.18 C496.00,496.40 495.15,496.17 493.64,496.55 C490.98,497.22 487.57,494.56 488.38,492.44 C489.03,490.76 486.37,488.57 483.64,488.53 C482.12,488.51 481.40,487.77 481.17,486.00 C480.98,484.62 480.42,483.07 479.92,482.55 C479.41,482.03 479.00,479.86 479.00,477.74 C479.00,474.68 478.34,473.29 475.78,470.94 C474.00,469.32 472.95,468.00 473.43,468.00 C473.91,468.00 473.50,467.10 472.50,466.00 C471.50,464.90 469.87,464.00 468.87,464.00 C467.87,464.00 466.29,462.84 465.36,461.43 C463.29,458.27 463.19,442.61 465.21,436.49 C466.45,432.70 466.66,432.55 470.50,432.77 C475.63,433.07 477.67,431.42 478.93,425.92 C480.29,420.01 480.29,420.00 478.00,420.00 C475.77,420.00 475.34,418.53 477.23,417.36 C478.56,416.54 479.69,416.37 487.75,415.85 C492.63,415.54 494.88,413.79 491.75,412.75 C490.98,412.49 491.37,411.87 492.75,411.13 C493.99,410.47 495.63,408.44 496.39,406.61 C497.53,403.89 498.59,403.09 502.33,402.15 C507.22,400.92 519.90,400.76 524.00,401.88 C525.93,402.41 526.72,403.53 527.45,406.82 C528.13,409.86 528.84,410.97 529.95,410.73 C530.80,410.54 531.37,409.79 531.21,409.07 C531.02,408.22 531.50,407.98 532.54,408.38 C533.43,408.72 535.48,409.00 537.08,409.00 C540.44,409.00 540.98,410.56 537.94,411.52 C535.00,412.45 536.19,414.56 539.45,414.20 C540.96,414.03 543.28,414.61 544.60,415.48 C546.67,416.83 546.93,417.59 546.42,420.80 C545.91,423.98 546.23,424.96 548.54,427.27 C551.67,430.40 552.46,430.53 556.28,428.54 C557.81,427.74 558.82,427.48 558.52,427.97 C558.21,428.46 558.42,429.14 558.98,429.49 C559.54,429.84 560.00,432.05 560.00,434.40 C560.00,437.42 560.59,439.23 562.00,440.50 C563.54,441.90 564.02,441.99 564.07,440.90 C564.11,440.11 564.59,440.43 565.17,441.65 C566.00,443.36 565.77,444.40 564.00,446.78 C561.51,450.16 561.99,454.25 564.83,453.78 C567.10,453.40 567.51,456.98 565.48,459.51 C563.95,461.42 563.90,461.37 564.27,458.25 C564.58,455.63 564.30,455.00 562.83,455.00 C561.04,455.00 560.39,457.89 560.96,463.31 C561.06,464.30 560.61,465.77 559.95,466.56 C559.20,467.47 558.93,469.92 559.23,473.09 C559.26,473.34 559.28,473.58 559.30,473.80 C559.50,475.76 559.61,476.88 559.16,477.68 C558.51,478.84 556.70,479.34 552.30,480.76 C549.97,481.51 548.97,481.48 548.63,480.64 C548.37,480.02 548.12,480.88 548.08,482.58 C548.03,484.48 547.06,486.54 545.53,487.97 C544.17,489.25 543.26,490.61 543.50,491.00 C544.69,492.93 541.03,495.37 536.65,495.55 C530.72,495.80 525.72,497.82 526.43,499.68 C527.10,501.43 526.22,501.69 517.14,502.43 C510.88,502.95 509.86,502.81 510.34,501.55 ZM 358.14 557.75 C358.34,557.06 358.37,521.74 358.22,479.25 C357.95,404.06 357.89,402.00 356.04,402.00 C354.18,402.00 354.12,404.08 353.81,479.75 C353.64,522.51 353.64,557.84 353.81,558.25 C354.32,559.49 357.76,559.09 358.14,557.75 ZM 511.42 330.08 C509.89,328.56 512.04,328.00 519.39,328.00 C525.40,328.00 527.93,328.37 528.29,329.31 C528.68,330.34 526.92,330.61 520.31,330.56 C515.65,330.53 511.65,330.31 511.42,330.08 ZM 464.57 329.89 C464.84,329.45 461.56,328.93 457.28,328.74 C452.06,328.51 453.61,328.36 462.00,328.28 C468.88,328.21 473.93,328.39 473.24,328.66 C472.55,328.94 472.20,329.51 472.45,329.92 C472.70,330.33 472.28,330.67 471.50,330.67 C470.72,330.67 470.36,330.22 470.70,329.68 C471.08,329.06 470.78,329.02 469.90,329.57 C468.10,330.69 463.92,330.94 464.57,329.89 ZM 497.51 330.18 C497.23,329.90 497.00,329.29 497.00,328.83 C497.00,327.63 504.76,327.80 505.52,329.02 C505.86,329.59 505.78,329.99 505.32,329.91 C504.87,329.83 504.27,329.86 504.00,329.98 C502.81,330.50 497.98,330.64 497.51,330.18 ZM 480.33 605.43 C479.54,603.36 477.00,603.67 477.00,605.83 C477.00,606.84 477.30,607.96 477.66,608.32 C478.72,609.39 480.93,606.99 480.33,605.43 ZM 446.64 675.50 C446.32,674.67 446.50,674.00 447.03,674.00 C447.56,674.00 448.00,673.33 448.00,672.50 C448.00,670.80 446.43,670.49 445.49,672.01 C444.83,673.08 445.76,677.00 446.67,677.00 C446.97,677.00 446.95,676.33 446.64,675.50 ZM 432.00 322.00 C432.00,321.45 430.31,321.01 428.25,321.02 C425.46,321.03 424.88,321.28 426.00,322.00 C427.97,323.27 432.00,323.27 432.00,322.00 ZM 556.00 324.88 C556.00,324.40 555.10,324.00 554.00,324.00 C552.90,324.00 552.00,324.63 552.00,325.41 C552.00,326.32 552.70,326.63 554.00,326.29 C555.10,326.00 556.00,325.37 556.00,324.88 ZM 669.97 464.75 C669.95,462.16 669.74,461.84 668.97,463.16 C668.43,464.08 668.27,465.54 668.61,466.41 C669.55,468.87 670.00,468.31 669.97,464.75 ZM 633.00 532.12 C633.00,531.63 633.93,530.99 635.06,530.70 C636.75,530.25 636.90,530.41 635.93,531.58 C634.61,533.17 633.00,533.47 633.00,532.12 ZM 467.00 469.00 C467.00,468.45 467.45,468.00 468.00,468.00 C468.55,468.00 469.00,468.45 469.00,469.00 C469.00,469.55 468.55,470.00 468.00,470.00 C467.45,470.00 467.00,469.55 467.00,469.00 Z" fill="rgb(254,254,254)"/>
<path d="M 422.61 673.75 C417.05,668.76 379.75,602.76 373.88,587.53 C367.90,572.01 368.04,574.71 368.02,475.46 C368.00,376.11 367.85,378.98 373.78,367.03 C377.26,360.01 387.64,348.97 394.88,344.57 C397.98,342.69 404.11,339.88 408.51,338.32 L 416.50 335.50 L 479.50 335.18 C548.54,334.84 558.08,335.32 576.88,340.06 C595.56,344.77 611.48,353.80 626.84,368.38 C636.30,377.37 647.23,394.92 651.82,408.50 C654.82,417.35 657.07,431.85 657.66,446.00 C658.82,474.16 651.69,499.41 636.47,521.00 C631.59,527.92 615.16,544.65 608.38,549.60 C602.24,554.09 589.10,561.13 580.50,564.55 C575.55,566.52 570.60,568.54 569.50,569.04 C568.40,569.54 563.00,570.91 557.50,572.08 C548.84,573.92 543.07,574.27 514.50,574.71 C496.35,574.99 480.80,575.59 479.95,576.04 C478.60,576.75 476.56,580.90 466.97,602.50 C461.74,614.30 455.75,627.46 452.20,635.00 C450.00,639.67 445.20,650.03 441.54,658.00 C437.88,665.97 433.97,673.29 432.83,674.25 C430.01,676.66 425.60,676.44 422.61,673.75 ZM 528.20 504.87 C539.18,502.52 552.26,494.41 559.18,485.66 C572.48,468.83 574.71,447.23 565.10,428.21 C561.20,420.48 548.21,407.31 541.00,403.79 C529.70,398.27 514.39,396.45 501.80,399.13 C486.25,402.44 469.54,416.38 463.85,430.79 C453.96,455.80 463.69,484.34 486.91,498.44 C497.71,505.01 514.98,507.69 528.20,504.87 Z" fill="rgb(253,103,32)"/>
</g>
</svg>